<svg xmlns="http://www.w3.org/2000/svg" width="36" height="36" viewBox="0 0 36 36">
  <g id="Grupo_10982" data-name="Grupo 10982" transform="translate(-20219 10043)">
    <g id="linkedin" transform="translate(20220 -10042)">
      <path id="Oval" d="M17,0A17,17,0,1,1,0,17,17,17,0,0,1,17,0Z" fill="rgba(255,255,255,0)" stroke="#fff" stroke-linecap="round" stroke-width="2" opacity="0.451"/>
    </g>
    <g id="_001-instagram" data-name="001-instagram" transform="translate(20228 -10034)">
      <path id="Caminho_5918" data-name="Caminho 5918" d="M12.287,0H5.213A5.219,5.219,0,0,0,0,5.213v7.073A5.219,5.219,0,0,0,5.213,17.5h7.073A5.219,5.219,0,0,0,17.5,12.287V5.213A5.219,5.219,0,0,0,12.287,0ZM15.74,12.287a3.453,3.453,0,0,1-3.453,3.453H5.213A3.453,3.453,0,0,1,1.76,12.287V5.213A3.453,3.453,0,0,1,5.213,1.761h7.073A3.453,3.453,0,0,1,15.74,5.213v7.073Z" fill="#fff"/>
      <path id="Caminho_5919" data-name="Caminho 5919" d="M137.234,133a4.234,4.234,0,1,0,4.234,4.234A4.238,4.238,0,0,0,137.234,133Zm0,6.821a2.587,2.587,0,1,1,2.587-2.587A2.587,2.587,0,0,1,137.234,139.821Z" transform="translate(-128.484 -128.484)" fill="#fff"/>
      <ellipse id="Elipse_5" data-name="Elipse 5" cx="1.095" cy="1.095" rx="1.095" ry="1.095" transform="translate(12.183 3.169)" fill="#fff"/>
    </g>
  </g>
</svg>
