<svg xmlns="http://www.w3.org/2000/svg" width="36" height="36" viewBox="0 0 36 36">
  <g id="Grupo_10979" data-name="Grupo 10979" transform="translate(-20041 10043)">
    <g id="linkedin" transform="translate(20042 -10042)">
      <path id="Oval" d="M17,0A17,17,0,1,1,0,17,17,17,0,0,1,17,0Z" fill="rgba(255,255,255,0)" stroke="#fff" stroke-linecap="round" stroke-width="2" opacity="0.451"/>
    </g>
    <path id="_002-twitter" data-name="002-twitter" d="M16.9,45.408a.37.37,0,0,0-.443-.078,3.158,3.158,0,0,1-.472.171,3.326,3.326,0,0,0,.562-1.081.37.37,0,0,0-.569-.4,7.768,7.768,0,0,1-1.778.7,3.719,3.719,0,0,0-4.66-.36,3.668,3.668,0,0,0-1.6,3.389,8.752,8.752,0,0,1-6.129-3.3.382.382,0,0,0-.314-.138.369.369,0,0,0-.3.18A3.577,3.577,0,0,0,.8,47.264a3.955,3.955,0,0,0,.642,1.343,1.962,1.962,0,0,1-.375-.24.37.37,0,0,0-.6.287,3.822,3.822,0,0,0,1.969,3.282,2.741,2.741,0,0,1-.476-.1.37.37,0,0,0-.443.506,4.033,4.033,0,0,0,2.8,2.291,6.512,6.512,0,0,1-3.9.8.364.364,0,0,0-.394.253.37.37,0,0,0,.17.436,11.076,11.076,0,0,0,5.462,1.552,9.381,9.381,0,0,0,5.184-1.585,9.878,9.878,0,0,0,4.5-8.557,6.9,6.9,0,0,0,1.607-1.675A.37.37,0,0,0,16.9,45.408Z" transform="translate(20051 -10075.702)" fill="#fff"/>
  </g>
</svg>
