<svg xmlns="http://www.w3.org/2000/svg" width="36" height="36" viewBox="0 0 36 36">
  <g id="Grupo_10981" data-name="Grupo 10981" transform="translate(-20153.001 10043)">
    <g id="linkedin" transform="translate(20154 -10042)">
      <path id="Oval" d="M17,0A17,17,0,1,1,0,17,17,17,0,0,1,17,0Z" fill="rgba(255,255,255,0)" stroke="#fff" stroke-linecap="round" stroke-width="2" opacity="0.451"/>
    </g>
    <path id="_004-youtube" data-name="004-youtube" d="M16.818,76.9c-.632-.751-1.8-1.057-4.025-1.057H4.707c-2.278,0-3.464.326-4.094,1.126C0,77.743,0,78.891,0,80.481v3.03c0,3.079.728,4.643,4.707,4.643h8.085c1.932,0,3-.27,3.694-.933.71-.68,1.013-1.789,1.013-3.71v-3.03C17.5,78.8,17.453,77.649,16.818,76.9Zm-5.583,5.519L7.564,84.333a.564.564,0,0,1-.826-.5V80.007a.565.565,0,0,1,.825-.5l3.672,1.906a.565.565,0,0,1,0,1Z" transform="translate(20162 -10106.838)" fill="#fff"/>
  </g>
</svg>
